M48
; DRILL file {KiCad (6.0.6)} date Tue Nov 29 14:39:16 2022
; FORMAT={-:-/ absolute / metric / decimal}
; #@! TF.CreationDate,2022-11-29T14:39:16-05:00
; #@! TF.GenerationSoftware,Kicad,Pcbnew,(6.0.6)
; #@! TF.FileFunction,MixedPlating,1,2
FMAT,2
METRIC
; #@! TA.AperFunction,Plated,PTH,ViaDrill
T1C0.400
; #@! TA.AperFunction,Plated,PTH,ComponentDrill
T2C0.760
; #@! TA.AperFunction,Plated,PTH,ViaDrill
T3C0.800
; #@! TA.AperFunction,Plated,PTH,ComponentDrill
T4C0.900
; #@! TA.AperFunction,Plated,PTH,ComponentDrill
T5C1.000
; #@! TA.AperFunction,Plated,PTH,ComponentDrill
T6C1.016
; #@! TA.AperFunction,Plated,PTH,ComponentDrill
T7C1.500
; #@! TA.AperFunction,Plated,PTH,ComponentDrill
T8C2.000
; #@! TA.AperFunction,NonPlated,NPTH,ComponentDrill
T9C2.800
; #@! TA.AperFunction,NonPlated,NPTH,ComponentDrill
T10C2.845
; #@! TA.AperFunction,NonPlated,NPTH,ComponentDrill
T11C3.250
; #@! TA.AperFunction,NonPlated,NPTH,ComponentDrill
T12C3.400
%
G90
G05
T1
X105.156Y-92.456
X105.156Y-94.996
X105.156Y-97.536
X105.156Y-100.33
X105.156Y-105.156
X105.405Y-82.507
X105.41Y-89.725
X105.41Y-102.616
X105.473Y-107.442
X110.527Y-81.02
X110.744Y-87.376
X110.744Y-88.9
X111.035Y-93.472
X111.125Y-99.06
X111.125Y-100.965
X111.383Y-97.413
X111.776Y-94.971
X112.014Y-91.186
X112.021Y-89.668
X112.522Y-98.806
X113.538Y-92.202
X114.046Y-84.328
X114.3Y-92.964
X114.357Y-98.902
X115.062Y-101.383
X115.57Y-116.84
X116.078Y-97.536
X116.078Y-100.33
X116.586Y-107.188
X117.344Y-93.468
X117.348Y-87.376
X117.475Y-112.395
X117.475Y-118.745
X117.602Y-92.202
X117.602Y-97.536
X117.856Y-88.9
X117.856Y-90.678
X118.11Y-101.854
X118.11Y-107.315
X119.38Y-122.936
X120.062Y-98.081
X120.142Y-72.898
X120.142Y-74.587
X121.158Y-98.806
X121.666Y-106.934
X121.991Y-96.0
X122.174Y-94.234
X122.174Y-97.79
X122.682Y-126.238
X123.952Y-132.461
X126.238Y-124.46
X126.492Y-117.094
X126.746Y-102.362
X128.27Y-100.076
X129.032Y-98.552
X129.286Y-102.362
X130.175Y-107.95
X130.302Y-98.552
X130.81Y-102.235
X131.064Y-96.266
X131.445Y-106.045
X131.445Y-110.49
X131.445Y-114.3
X132.715Y-107.315
X133.058Y-85.932
X133.086Y-100.075
X133.35Y-110.49
X134.0Y-116.0
X134.366Y-95.25
X134.62Y-80.645
X135.255Y-99.06
X135.255Y-100.33
X135.255Y-102.235
X135.255Y-106.045
X135.255Y-110.49
X135.255Y-114.3
X135.259Y-97.159
X135.382Y-118.618
X136.398Y-117.094
X138.176Y-122.428
X138.176Y-128.524
X138.43Y-106.045
X139.0Y-96.0
X139.0Y-101.0
X139.0Y-102.235
X139.065Y-99.06
X139.935Y-110.117
X139.96Y-106.953
X140.208Y-76.2
X140.335Y-80.645
X140.716Y-117.102
X140.97Y-83.185
X140.97Y-85.725
X140.97Y-137.16
X141.097Y-133.477
X142.155Y-113.927
X142.748Y-118.237
X143.479Y-121.646
X144.95Y-96.973
X145.034Y-76.2
X150.0Y-96.0
X151.13Y-81.28
X155.259Y-119.433
X155.671Y-116.323
X155.956Y-128.524
X156.0Y-110.0
X156.464Y-132.08
X157.948Y-107.938
X158.0Y-100.0
X159.385Y-78.74
X160.02Y-101.6
X160.02Y-107.315
X160.655Y-93.345
X160.782Y-133.096
X161.0Y-96.0
X161.536Y-111.741
X162.938Y-115.561
X163.83Y-108.204
X164.465Y-93.345
X164.465Y-101.6
X165.354Y-108.712
X165.735Y-104.14
X167.005Y-112.395
X170.815Y-102.235
X173.966Y-112.99
X175.26Y-95.885
X177.292Y-110.236
X178.967Y-100.711
X179.0Y-96.0
X179.578Y-110.236
X180.0Y-93.0
X180.0Y-98.0
X180.34Y-122.682
X181.991Y-109.22
X182.88Y-97.155
X183.019Y-99.187
X183.443Y-119.443
X183.515Y-90.17
X183.515Y-92.71
X183.515Y-95.25
X183.642Y-127.0
X184.0Y-115.0
X185.632Y-113.665
X185.632Y-118.72
X185.664Y-111.794
X185.665Y-116.846
X186.436Y-123.19
X190.545Y-121.805
X190.881Y-95.25
X193.675Y-111.125
T2
X186.055Y-91.44
X186.055Y-93.98
X186.055Y-96.52
X188.595Y-90.17
X188.595Y-92.71
X188.595Y-95.25
T3
X110.49Y-114.935
X111.125Y-110.49
X112.014Y-106.172
X117.475Y-125.73
X119.38Y-118.745
X137.795Y-109.855
X137.795Y-115.57
X164.592Y-124.714
X179.157Y-124.547
X181.61Y-89.535
X185.42Y-124.968
X190.754Y-100.076
T4
X190.825Y-109.28
X190.825Y-111.78
X190.825Y-114.28
X190.825Y-116.78
T5
X104.101Y-85.954
X104.101Y-88.494
X104.101Y-91.034
X104.101Y-93.574
X104.101Y-96.114
X104.101Y-98.654
X104.101Y-101.194
X104.101Y-103.734
X104.101Y-106.274
X104.101Y-108.814
X104.101Y-111.354
X104.101Y-113.894
X104.101Y-116.434
X104.101Y-118.974
X104.101Y-121.514
X104.101Y-124.054
X106.641Y-85.954
X106.641Y-88.494
X106.641Y-91.034
X106.641Y-93.574
X106.641Y-96.114
X106.641Y-98.654
X106.641Y-101.194
X106.641Y-103.734
X106.641Y-106.274
X106.641Y-108.814
X106.641Y-111.354
X106.641Y-113.894
X106.641Y-116.434
X106.641Y-118.974
X106.641Y-121.514
X106.641Y-124.054
X109.181Y-85.954
X109.181Y-88.494
X109.181Y-91.034
X109.181Y-93.574
X109.181Y-96.114
X109.181Y-98.654
X109.181Y-101.194
X109.181Y-103.734
X109.181Y-106.274
X109.181Y-108.814
X109.181Y-111.354
X109.181Y-113.894
X109.181Y-116.434
X109.181Y-118.974
X109.181Y-121.514
X109.181Y-124.054
X118.11Y-128.905
X120.65Y-128.905
X180.975Y-102.24
X180.975Y-104.78
T6
X124.587Y-121.107
X124.587Y-138.481
X164.465Y-121.107
X164.465Y-138.481
T7
X113.03Y-123.19
X123.19Y-104.14
X123.19Y-112.395
X151.765Y-104.775
X152.4Y-93.345
X152.908Y-115.189
X153.035Y-78.74
X180.0Y-84.772
X187.96Y-103.505
X194.31Y-80.645
X194.31Y-103.505
X194.945Y-123.19
T9
X101.561Y-80.874
X101.561Y-129.134
T10
X129.032Y-122.174
X160.02Y-137.414
T11
X194.945Y-88.27
X194.945Y-98.43
T12
X101.341Y-70.644
X101.341Y-139.364
X195.661Y-70.644
X195.661Y-139.364
T8
G00X196.525Y-112.63
M15
G01X196.525Y-113.43
M16
G05
T0
M30
