%TF.GenerationSoftware,KiCad,Pcbnew,(6.0.6)*%
%TF.CreationDate,2022-11-29T14:39:04-05:00*%
%TF.ProjectId,PolyVent_SPI_Controller,506f6c79-5665-46e7-945f-5350495f436f,0.1*%
%TF.SameCoordinates,Original*%
%TF.FileFunction,Soldermask,Bot*%
%TF.FilePolarity,Negative*%
%FSLAX46Y46*%
G04 Gerber Fmt 4.6, Leading zero omitted, Abs format (unit mm)*
G04 Created by KiCad (PCBNEW (6.0.6)) date 2022-11-29 14:39:04*
%MOMM*%
%LPD*%
G01*
G04 APERTURE LIST*
G04 Aperture macros list*
%AMRoundRect*
0 Rectangle with rounded corners*
0 $1 Rounding radius*
0 $2 $3 $4 $5 $6 $7 $8 $9 X,Y pos of 4 corners*
0 Add a 4 corners polygon primitive as box body*
4,1,4,$2,$3,$4,$5,$6,$7,$8,$9,$2,$3,0*
0 Add four circle primitives for the rounded corners*
1,1,$1+$1,$2,$3*
1,1,$1+$1,$4,$5*
1,1,$1+$1,$6,$7*
1,1,$1+$1,$8,$9*
0 Add four rect primitives between the rounded corners*
20,1,$1+$1,$2,$3,$4,$5,0*
20,1,$1+$1,$4,$5,$6,$7,0*
20,1,$1+$1,$6,$7,$8,$9,0*
20,1,$1+$1,$8,$9,$2,$3,0*%
G04 Aperture macros list end*
%ADD10C,3.000000*%
%ADD11C,3.400000*%
%ADD12R,1.524000X1.524000*%
%ADD13C,1.524000*%
%ADD14R,1.700000X1.700000*%
%ADD15O,1.700000X1.700000*%
%ADD16C,3.250000*%
%ADD17R,1.520000X1.520000*%
%ADD18C,1.520000*%
%ADD19C,4.775200*%
%ADD20R,3.175000X3.175000*%
%ADD21C,2.800000*%
%ADD22RoundRect,0.101600X-0.675000X0.675000X-0.675000X-0.675000X0.675000X-0.675000X0.675000X0.675000X0*%
%ADD23C,1.553200*%
G04 APERTURE END LIST*
D10*
%TO.C,TP101*%
X180000000Y-84772500D03*
%TD*%
%TO.C,TP103*%
X152400000Y-93345000D03*
%TD*%
%TO.C,TP106*%
X123190000Y-104140000D03*
%TD*%
%TO.C,TP203*%
X194945000Y-123190000D03*
%TD*%
D11*
%TO.C,@HOLE1*%
X101341100Y-70643600D03*
%TD*%
D10*
%TO.C,TP104*%
X151765000Y-104775000D03*
%TD*%
%TO.C,TP105*%
X152908000Y-115189000D03*
%TD*%
D11*
%TO.C,@HOLE0*%
X101341100Y-139363600D03*
%TD*%
D12*
%TO.C,J201*%
X190825000Y-109280000D03*
D13*
X190825000Y-111780000D03*
X190825000Y-114280000D03*
X190825000Y-116780000D03*
%TD*%
D14*
%TO.C,J103*%
X118110000Y-128905000D03*
D15*
X120650000Y-128905000D03*
%TD*%
D10*
%TO.C,TP108*%
X194310000Y-80645000D03*
%TD*%
D16*
%TO.C,J102*%
X194945000Y-88270000D03*
X194945000Y-98430000D03*
D17*
X186055000Y-96520000D03*
D18*
X188595000Y-95250000D03*
X186055000Y-93980000D03*
X188595000Y-92710000D03*
X186055000Y-91440000D03*
X188595000Y-90170000D03*
%TD*%
D19*
%TO.C,U101*%
X160020000Y-137414000D03*
X129032000Y-122174000D03*
D20*
X124587000Y-121107200D03*
X124587000Y-138480800D03*
X164465000Y-121107200D03*
X164465000Y-138480800D03*
%TD*%
D10*
%TO.C,TP201*%
X194310000Y-103505000D03*
%TD*%
%TO.C,TP109*%
X113030000Y-123190000D03*
%TD*%
D11*
%TO.C,@HOLE2*%
X195661100Y-70643600D03*
%TD*%
D10*
%TO.C,TP202*%
X187960000Y-103505000D03*
%TD*%
D14*
%TO.C,J202*%
X180975000Y-104780000D03*
D15*
X180975000Y-102240000D03*
%TD*%
D11*
%TO.C,@HOLE3*%
X195661100Y-139363600D03*
%TD*%
D21*
%TO.C,J1*%
X101561113Y-80873600D03*
X101561113Y-129133600D03*
D22*
X104101113Y-124053600D03*
D23*
X104101113Y-121513600D03*
X104101113Y-118973600D03*
X104101113Y-116433600D03*
X104101113Y-113893600D03*
X104101113Y-111353600D03*
X104101113Y-108813600D03*
X104101113Y-106273600D03*
X104101113Y-103733600D03*
X104101113Y-101193600D03*
X104101113Y-98653600D03*
X104101113Y-96113600D03*
X104101113Y-93573600D03*
X104101113Y-91033600D03*
X104101113Y-88493600D03*
X104101113Y-85953600D03*
X106641113Y-124053600D03*
X106641113Y-121513600D03*
X106641113Y-118973600D03*
X106641113Y-116433600D03*
X106641113Y-113893600D03*
X106641113Y-111353600D03*
X106641113Y-108813600D03*
X106641113Y-106273600D03*
X106641113Y-103733600D03*
X106641113Y-101193600D03*
X106641113Y-98653600D03*
X106641113Y-96113600D03*
X106641113Y-93573600D03*
X106641113Y-91033600D03*
X106641113Y-88493600D03*
X106641113Y-85953600D03*
X109181113Y-124053600D03*
X109181113Y-121513600D03*
X109181113Y-118973600D03*
X109181113Y-116433600D03*
X109181113Y-113893600D03*
X109181113Y-111353600D03*
X109181113Y-108813600D03*
X109181113Y-106273600D03*
X109181113Y-103733600D03*
X109181113Y-101193600D03*
X109181113Y-98653600D03*
X109181113Y-96113600D03*
X109181113Y-93573600D03*
X109181113Y-91033600D03*
X109181113Y-88493600D03*
X109181113Y-85953600D03*
%TD*%
D10*
%TO.C,TP107*%
X123190000Y-112395000D03*
%TD*%
%TO.C,TP102*%
X153035000Y-78740000D03*
%TD*%
M02*
