%TF.GenerationSoftware,KiCad,Pcbnew,(6.0.6)*%
%TF.CreationDate,2022-11-29T14:39:04-05:00*%
%TF.ProjectId,PolyVent_SPI_Controller,506f6c79-5665-46e7-945f-5350495f436f,0.1*%
%TF.SameCoordinates,Original*%
%TF.FileFunction,Soldermask,Top*%
%TF.FilePolarity,Negative*%
%FSLAX46Y46*%
G04 Gerber Fmt 4.6, Leading zero omitted, Abs format (unit mm)*
G04 Created by KiCad (PCBNEW (6.0.6)) date 2022-11-29 14:39:04*
%MOMM*%
%LPD*%
G01*
G04 APERTURE LIST*
G04 Aperture macros list*
%AMRoundRect*
0 Rectangle with rounded corners*
0 $1 Rounding radius*
0 $2 $3 $4 $5 $6 $7 $8 $9 X,Y pos of 4 corners*
0 Add a 4 corners polygon primitive as box body*
4,1,4,$2,$3,$4,$5,$6,$7,$8,$9,$2,$3,0*
0 Add four circle primitives for the rounded corners*
1,1,$1+$1,$2,$3*
1,1,$1+$1,$4,$5*
1,1,$1+$1,$6,$7*
1,1,$1+$1,$8,$9*
0 Add four rect primitives between the rounded corners*
20,1,$1+$1,$2,$3,$4,$5,0*
20,1,$1+$1,$4,$5,$6,$7,0*
20,1,$1+$1,$6,$7,$8,$9,0*
20,1,$1+$1,$8,$9,$2,$3,0*%
G04 Aperture macros list end*
%ADD10RoundRect,0.237500X-0.237500X0.250000X-0.237500X-0.250000X0.237500X-0.250000X0.237500X0.250000X0*%
%ADD11RoundRect,0.218750X-0.218750X-0.256250X0.218750X-0.256250X0.218750X0.256250X-0.218750X0.256250X0*%
%ADD12C,3.000000*%
%ADD13RoundRect,0.237500X0.250000X0.237500X-0.250000X0.237500X-0.250000X-0.237500X0.250000X-0.237500X0*%
%ADD14RoundRect,0.237500X0.287500X0.237500X-0.287500X0.237500X-0.287500X-0.237500X0.287500X-0.237500X0*%
%ADD15RoundRect,0.237500X-0.250000X-0.237500X0.250000X-0.237500X0.250000X0.237500X-0.250000X0.237500X0*%
%ADD16RoundRect,0.237500X-0.237500X0.300000X-0.237500X-0.300000X0.237500X-0.300000X0.237500X0.300000X0*%
%ADD17C,3.400000*%
%ADD18RoundRect,0.150000X-0.587500X-0.150000X0.587500X-0.150000X0.587500X0.150000X-0.587500X0.150000X0*%
%ADD19R,1.250000X0.760000*%
%ADD20R,1.524000X1.524000*%
%ADD21C,1.524000*%
%ADD22R,1.700000X1.700000*%
%ADD23O,1.700000X1.700000*%
%ADD24C,3.250000*%
%ADD25R,1.520000X1.520000*%
%ADD26C,1.520000*%
%ADD27C,4.775200*%
%ADD28R,3.175000X3.175000*%
%ADD29C,2.800000*%
%ADD30RoundRect,0.101600X-0.675000X0.675000X-0.675000X-0.675000X0.675000X-0.675000X0.675000X0.675000X0*%
%ADD31C,1.553200*%
%ADD32RoundRect,0.237500X0.237500X-0.250000X0.237500X0.250000X-0.237500X0.250000X-0.237500X-0.250000X0*%
G04 APERTURE END LIST*
D10*
%TO.C,R113*%
X144780000Y-78462500D03*
X144780000Y-80287500D03*
%TD*%
D11*
%TO.C,F103*%
X113030000Y-114300000D03*
X114605000Y-114300000D03*
%TD*%
D12*
%TO.C,TP101*%
X180000000Y-84772500D03*
%TD*%
D13*
%TO.C,R107*%
X148590000Y-118110000D03*
X146765000Y-118110000D03*
%TD*%
%TO.C,R205*%
X183538500Y-111760000D03*
X181713500Y-111760000D03*
%TD*%
D12*
%TO.C,TP103*%
X152400000Y-93345000D03*
%TD*%
D14*
%TO.C,D101*%
X182485000Y-78105000D03*
X180735000Y-78105000D03*
%TD*%
D15*
%TO.C,R102*%
X118467500Y-133350000D03*
X120292500Y-133350000D03*
%TD*%
%TO.C,R111*%
X143232500Y-83185000D03*
X145057500Y-83185000D03*
%TD*%
D13*
%TO.C,R105*%
X147597500Y-109220000D03*
X145772500Y-109220000D03*
%TD*%
%TO.C,R117*%
X178077500Y-78105000D03*
X176252500Y-78105000D03*
%TD*%
D12*
%TO.C,TP106*%
X123190000Y-104140000D03*
%TD*%
D16*
%TO.C,C202*%
X185420000Y-116612500D03*
X185420000Y-118337500D03*
%TD*%
D13*
%TO.C,R108*%
X154582500Y-83185000D03*
X152757500Y-83185000D03*
%TD*%
D12*
%TO.C,TP203*%
X194945000Y-123190000D03*
%TD*%
D13*
%TO.C,R103*%
X149502500Y-83185000D03*
X147677500Y-83185000D03*
%TD*%
D17*
%TO.C,@HOLE1*%
X101341100Y-70643600D03*
%TD*%
D18*
%TO.C,Q102*%
X147652500Y-78425000D03*
X147652500Y-80325000D03*
X149527500Y-79375000D03*
%TD*%
D10*
%TO.C,R204*%
X176530000Y-117832500D03*
X176530000Y-119657500D03*
%TD*%
D12*
%TO.C,TP104*%
X151765000Y-104775000D03*
%TD*%
D19*
%TO.C,SW101*%
X130860800Y-94361000D03*
X130860800Y-93091000D03*
X130860800Y-91821000D03*
X130860800Y-90551000D03*
X130860800Y-89281000D03*
X130860800Y-88011000D03*
X130860800Y-86741000D03*
X130860800Y-85471000D03*
X124663200Y-85471000D03*
X124663200Y-86741000D03*
X124663200Y-88011000D03*
X124663200Y-89281000D03*
X124663200Y-90551000D03*
X124663200Y-91821000D03*
X124663200Y-93091000D03*
X124663200Y-94361000D03*
%TD*%
%TO.C,SW102*%
X130860800Y-80391000D03*
X130860800Y-79121000D03*
X130860800Y-77851000D03*
X130860800Y-76581000D03*
X130860800Y-75311000D03*
X130860800Y-74041000D03*
X130860800Y-72771000D03*
X130860800Y-71501000D03*
X124663200Y-71501000D03*
X124663200Y-72771000D03*
X124663200Y-74041000D03*
X124663200Y-75311000D03*
X124663200Y-76581000D03*
X124663200Y-77851000D03*
X124663200Y-79121000D03*
X124663200Y-80391000D03*
%TD*%
D11*
%TO.C,F102*%
X112242500Y-108585000D03*
X113817500Y-108585000D03*
%TD*%
D13*
%TO.C,R119*%
X178077500Y-71755000D03*
X176252500Y-71755000D03*
%TD*%
D12*
%TO.C,TP105*%
X152908000Y-115189000D03*
%TD*%
D11*
%TO.C,F101*%
X113512500Y-106172000D03*
X115087500Y-106172000D03*
%TD*%
D17*
%TO.C,@HOLE0*%
X101341100Y-139363600D03*
%TD*%
D20*
%TO.C,J201*%
X190825000Y-109280000D03*
D21*
X190825000Y-111780000D03*
X190825000Y-114280000D03*
X190825000Y-116780000D03*
%TD*%
D22*
%TO.C,J103*%
X118110000Y-128905000D03*
D23*
X120650000Y-128905000D03*
%TD*%
D15*
%TO.C,R114*%
X143232500Y-86360000D03*
X145057500Y-86360000D03*
%TD*%
D10*
%TO.C,R201*%
X167640000Y-108942500D03*
X167640000Y-110767500D03*
%TD*%
%TO.C,R203*%
X175895000Y-108307500D03*
X175895000Y-110132500D03*
%TD*%
D12*
%TO.C,TP108*%
X194310000Y-80645000D03*
%TD*%
D13*
%TO.C,R118*%
X178355000Y-74930000D03*
X176530000Y-74930000D03*
%TD*%
%TO.C,R104*%
X148590000Y-97790000D03*
X146765000Y-97790000D03*
%TD*%
D24*
%TO.C,J102*%
X194945000Y-88270000D03*
X194945000Y-98430000D03*
D25*
X186055000Y-96520000D03*
D26*
X188595000Y-95250000D03*
X186055000Y-93980000D03*
X188595000Y-92710000D03*
X186055000Y-91440000D03*
X188595000Y-90170000D03*
%TD*%
D27*
%TO.C,U101*%
X160020000Y-137414000D03*
X129032000Y-122174000D03*
D28*
X124587000Y-121107200D03*
X124587000Y-138480800D03*
X164465000Y-121107200D03*
X164465000Y-138480800D03*
%TD*%
D12*
%TO.C,TP201*%
X194310000Y-103505000D03*
%TD*%
D18*
%TO.C,Q104*%
X145747500Y-103825000D03*
X145747500Y-105725000D03*
X147622500Y-104775000D03*
%TD*%
D12*
%TO.C,TP109*%
X113030000Y-123190000D03*
%TD*%
D17*
%TO.C,@HOLE2*%
X195661100Y-70643600D03*
%TD*%
D13*
%TO.C,R106*%
X152550500Y-118110000D03*
X150725500Y-118110000D03*
%TD*%
D16*
%TO.C,C201*%
X185420000Y-112167500D03*
X185420000Y-113892500D03*
%TD*%
%TO.C,C106*%
X117475000Y-108992500D03*
X117475000Y-110717500D03*
%TD*%
D18*
%TO.C,Q103*%
X146382500Y-93030000D03*
X146382500Y-94930000D03*
X148257500Y-93980000D03*
%TD*%
D12*
%TO.C,TP202*%
X187960000Y-103505000D03*
%TD*%
D16*
%TO.C,C103*%
X181610000Y-96292500D03*
X181610000Y-98017500D03*
%TD*%
D13*
%TO.C,R120*%
X188364500Y-126746000D03*
X186539500Y-126746000D03*
%TD*%
%TO.C,R207*%
X174902500Y-104140000D03*
X173077500Y-104140000D03*
%TD*%
D15*
%TO.C,R208*%
X173077500Y-100965000D03*
X174902500Y-100965000D03*
%TD*%
D10*
%TO.C,R202*%
X168910000Y-119102500D03*
X168910000Y-120927500D03*
%TD*%
D22*
%TO.C,J202*%
X180975000Y-104780000D03*
D23*
X180975000Y-102240000D03*
%TD*%
D17*
%TO.C,@HOLE3*%
X195661100Y-139363600D03*
%TD*%
D16*
%TO.C,C104*%
X177165000Y-99467500D03*
X177165000Y-101192500D03*
%TD*%
D29*
%TO.C,J1*%
X101561113Y-80873600D03*
X101561113Y-129133600D03*
D30*
X104101113Y-124053600D03*
D31*
X104101113Y-121513600D03*
X104101113Y-118973600D03*
X104101113Y-116433600D03*
X104101113Y-113893600D03*
X104101113Y-111353600D03*
X104101113Y-108813600D03*
X104101113Y-106273600D03*
X104101113Y-103733600D03*
X104101113Y-101193600D03*
X104101113Y-98653600D03*
X104101113Y-96113600D03*
X104101113Y-93573600D03*
X104101113Y-91033600D03*
X104101113Y-88493600D03*
X104101113Y-85953600D03*
X106641113Y-124053600D03*
X106641113Y-121513600D03*
X106641113Y-118973600D03*
X106641113Y-116433600D03*
X106641113Y-113893600D03*
X106641113Y-111353600D03*
X106641113Y-108813600D03*
X106641113Y-106273600D03*
X106641113Y-103733600D03*
X106641113Y-101193600D03*
X106641113Y-98653600D03*
X106641113Y-96113600D03*
X106641113Y-93573600D03*
X106641113Y-91033600D03*
X106641113Y-88493600D03*
X106641113Y-85953600D03*
X109181113Y-124053600D03*
X109181113Y-121513600D03*
X109181113Y-118973600D03*
X109181113Y-116433600D03*
X109181113Y-113893600D03*
X109181113Y-111353600D03*
X109181113Y-108813600D03*
X109181113Y-106273600D03*
X109181113Y-103733600D03*
X109181113Y-101193600D03*
X109181113Y-98653600D03*
X109181113Y-96113600D03*
X109181113Y-93573600D03*
X109181113Y-91033600D03*
X109181113Y-88493600D03*
X109181113Y-85953600D03*
%TD*%
D16*
%TO.C,C105*%
X119888000Y-104801500D03*
X119888000Y-106526500D03*
%TD*%
%TO.C,C107*%
X117475000Y-115342500D03*
X117475000Y-117067500D03*
%TD*%
D10*
%TO.C,R112*%
X144018000Y-114149500D03*
X144018000Y-115974500D03*
%TD*%
D15*
%TO.C,R116*%
X141962500Y-109220000D03*
X143787500Y-109220000D03*
%TD*%
D16*
%TO.C,C101*%
X181610000Y-91847500D03*
X181610000Y-93572500D03*
%TD*%
D18*
%TO.C,Q202*%
X171782500Y-119065000D03*
X171782500Y-120965000D03*
X173657500Y-120015000D03*
%TD*%
D13*
%TO.C,R109*%
X153035000Y-97790000D03*
X151210000Y-97790000D03*
%TD*%
D12*
%TO.C,TP107*%
X123190000Y-112395000D03*
%TD*%
D13*
%TO.C,R206*%
X182880000Y-116840000D03*
X181055000Y-116840000D03*
%TD*%
D32*
%TO.C,R101*%
X117475000Y-123467500D03*
X117475000Y-121642500D03*
%TD*%
D14*
%TO.C,D102*%
X182485000Y-74930000D03*
X180735000Y-74930000D03*
%TD*%
D18*
%TO.C,Q201*%
X171147500Y-108905000D03*
X171147500Y-110805000D03*
X173022500Y-109855000D03*
%TD*%
%TO.C,Q101*%
X146765500Y-114112000D03*
X146765500Y-116012000D03*
X148640500Y-115062000D03*
%TD*%
D14*
%TO.C,D103*%
X182485000Y-71755000D03*
X180735000Y-71755000D03*
%TD*%
D10*
%TO.C,R115*%
X141605000Y-94337500D03*
X141605000Y-96162500D03*
%TD*%
D13*
%TO.C,R110*%
X152677500Y-109220000D03*
X150852500Y-109220000D03*
%TD*%
D12*
%TO.C,TP102*%
X153035000Y-78740000D03*
%TD*%
D16*
%TO.C,C102*%
X177165000Y-94387500D03*
X177165000Y-96112500D03*
%TD*%
M02*
