M48
; DRILL file {KiCad (6.0.6)} date Tue Feb 21 10:41:48 2023
; FORMAT={-:-/ absolute / metric / decimal}
; #@! TF.CreationDate,2023-02-21T10:41:48-05:00
; #@! TF.GenerationSoftware,Kicad,Pcbnew,(6.0.6)
; #@! TF.FileFunction,Plated,1,2,PTH
FMAT,2
METRIC
; #@! TA.AperFunction,Plated,PTH,ViaDrill
T1C0.400
; #@! TA.AperFunction,Plated,PTH,ComponentDrill
T2C0.500
; #@! TA.AperFunction,Plated,PTH,ComponentDrill
T3C0.550
; #@! TA.AperFunction,Plated,PTH,ComponentDrill
T4C0.760
; #@! TA.AperFunction,Plated,PTH,ComponentDrill
T5C0.800
; #@! TA.AperFunction,Plated,PTH,ComponentDrill
T6C0.900
; #@! TA.AperFunction,Plated,PTH,ComponentDrill
T7C1.000
; #@! TA.AperFunction,Plated,PTH,ComponentDrill
T8C1.016
; #@! TA.AperFunction,Plated,PTH,ComponentDrill
T9C1.100
; #@! TA.AperFunction,Plated,PTH,ComponentDrill
T10C1.190
; #@! TA.AperFunction,Plated,PTH,ComponentDrill
T11C1.200
; #@! TA.AperFunction,Plated,PTH,ComponentDrill
T12C1.300
; #@! TA.AperFunction,Plated,PTH,ComponentDrill
T13C1.500
; #@! TA.AperFunction,Plated,PTH,ViaDrill
T14C1.587
; #@! TA.AperFunction,Plated,PTH,ComponentDrill
T15C2.000
; #@! TA.AperFunction,Plated,PTH,ComponentDrill
T16C3.375
; #@! TA.AperFunction,Plated,PTH,ComponentDrill
T17C3.500
%
G90
G05
T1
X59.055Y-74.93
X60.96Y-91.567
X62.23Y-56.515
X64.77Y-54.61
X64.77Y-58.42
X64.77Y-81.28
X65.405Y-75.565
X66.675Y-43.18
X66.675Y-45.72
X66.675Y-92.71
X67.31Y-55.245
X67.31Y-58.42
X69.215Y-92.71
X71.755Y-44.45
X72.39Y-64.135
X72.39Y-76.835
X73.025Y-50.8
X73.66Y-57.785
X74.203Y-55.88
X74.295Y-46.355
X74.93Y-26.035
X74.93Y-38.735
X74.93Y-51.435
X74.93Y-53.34
X77.724Y-48.514
X77.724Y-54.356
X77.724Y-58.674
X77.978Y-43.434
X78.105Y-38.481
X78.105Y-92.71
X78.232Y-71.247
X80.01Y-46.355
X80.01Y-50.165
X80.01Y-52.705
X80.01Y-55.245
X80.137Y-67.31
X80.645Y-45.085
X80.645Y-56.515
X80.645Y-58.42
X81.28Y-48.26
X81.28Y-53.975
X82.296Y-69.596
X82.423Y-74.803
X82.55Y-53.34
X83.185Y-81.28
X84.328Y-48.768
X84.328Y-54.229
X84.455Y-20.955
X84.455Y-61.595
X84.455Y-86.995
X84.582Y-84.963
X88.138Y-75.911
X90.17Y-79.883
X90.805Y-48.895
X90.805Y-50.165
X90.805Y-56.515
X95.25Y-71.12
X96.52Y-71.12
X96.524Y-67.306
X97.79Y-71.184
X99.695Y-46.355
X104.14Y-53.34
X104.7Y-62.79
X104.775Y-67.31
X104.775Y-85.725
X106.045Y-81.115
X106.68Y-38.1
X106.68Y-92.71
X106.92Y-53.765
X107.315Y-72.39
X107.555Y-48.05
X107.95Y-34.861
X107.95Y-42.545
X108.34Y-82.385
X108.585Y-93.98
X109.22Y-38.1
X109.855Y-73.66
X109.855Y-90.17
X109.855Y-95.25
X110.172Y-93.662
X110.73Y-51.86
X110.869Y-55.035
X111.191Y-81.115
X111.76Y-95.885
X111.82Y-66.645
X112.0Y-60.115
X112.0Y-63.925
X112.635Y-51.225
X112.635Y-55.035
X113.226Y-80.579
X113.27Y-48.05
X113.983Y-92.392
X114.3Y-66.675
X114.3Y-73.66
X115.57Y-69.215
X115.57Y-72.39
X117.475Y-67.31
X117.475Y-73.66
X117.475Y-77.47
X118.11Y-62.865
X119.316Y-56.515
X120.015Y-62.865
X120.532Y-55.127
X121.285Y-64.135
X122.14Y-57.175
X122.555Y-62.954
X122.682Y-79.629
X123.063Y-77.597
X124.46Y-67.945
X125.189Y-82.132
X125.984Y-77.597
X126.111Y-80.01
X127.0Y-66.04
X127.0Y-70.485
X127.0Y-73.66
X129.302Y-70.088
X129.54Y-31.75
X130.175Y-47.625
X130.81Y-40.64
X131.445Y-25.4
X132.08Y-31.115
X132.715Y-39.37
X132.715Y-69.215
X132.715Y-87.63
X134.62Y-27.94
X135.255Y-84.455
X135.255Y-86.995
X135.636Y-77.724
X135.89Y-34.29
X136.525Y-39.37
X136.525Y-44.45
X136.525Y-84.455
X136.525Y-86.995
X137.414Y-72.39
X137.541Y-79.121
X139.065Y-39.37
X139.065Y-73.66
X139.065Y-77.47
X139.065Y-87.63
X139.7Y-42.545
X140.335Y-38.735
X140.335Y-80.01
X140.583Y-72.96
X140.97Y-58.42
X140.97Y-70.485
X141.605Y-40.005
X141.605Y-86.36
X142.24Y-43.815
X142.494Y-77.724
X142.875Y-40.64
X144.145Y-53.34
X144.145Y-60.706
X144.448Y-71.731
X145.415Y-77.47
X146.05Y-26.035
X146.05Y-53.34
X146.685Y-29.845
X146.685Y-73.66
X146.939Y-61.087
X147.955Y-53.975
X147.955Y-60.325
X148.59Y-85.725
X148.67Y-40.72
X149.225Y-29.845
X151.13Y-85.725
X154.94Y-85.725
X157.48Y-42.545
X158.115Y-85.725
X159.107Y-36.83
X159.385Y-78.74
X160.02Y-85.725
X160.655Y-90.17
X161.29Y-53.975
X161.29Y-60.96
X165.1Y-57.785
X166.37Y-26.035
X167.3Y-29.55
X176.53Y-51.435
X176.53Y-57.785
X177.165Y-26.035
X181.61Y-27.305
X182.245Y-31.75
X183.277Y-58.023
X183.629Y-82.664
X184.785Y-85.725
X185.42Y-90.17
X190.795Y-89.83
T2
X58.335Y-22.86
X58.335Y-96.52
X59.104Y-21.004
X59.104Y-24.716
X59.104Y-94.664
X59.104Y-98.376
X60.96Y-20.235
X60.96Y-25.485
X60.96Y-93.895
X60.96Y-99.145
X62.816Y-21.004
X62.816Y-24.716
X62.816Y-94.664
X62.816Y-98.376
X63.585Y-22.86
X63.585Y-96.52
X121.835Y-96.52
X122.604Y-94.664
X122.604Y-98.376
X124.46Y-93.895
X124.46Y-99.145
X126.316Y-94.664
X126.316Y-98.376
X127.085Y-96.52
X185.335Y-22.86
X185.335Y-96.52
X186.104Y-21.004
X186.104Y-24.716
X186.104Y-94.664
X186.104Y-98.376
X187.96Y-20.235
X187.96Y-25.485
X187.96Y-93.895
X187.96Y-99.145
X189.816Y-21.004
X189.816Y-24.716
X189.816Y-94.664
X189.816Y-98.376
X190.585Y-22.86
X190.585Y-96.52
T4
X151.13Y-87.63
X152.4Y-90.17
X153.67Y-87.63
X154.94Y-90.17
X156.21Y-87.63
X157.48Y-90.17
T5
X182.88Y-41.275
X185.42Y-38.735
X187.96Y-41.275
T6
X133.41Y-94.94
X135.91Y-94.94
X138.41Y-94.94
X140.91Y-94.94
T7
X68.491Y-86.36
X71.12Y-21.59
X71.12Y-24.13
X71.12Y-34.29
X71.12Y-36.83
X71.12Y-46.99
X71.12Y-49.53
X71.12Y-59.69
X71.12Y-62.23
X71.12Y-72.39
X71.12Y-74.93
X73.491Y-86.36
X86.36Y-37.846
X86.36Y-40.386
X86.36Y-42.926
X86.36Y-45.466
X86.36Y-48.006
X86.36Y-50.546
X86.36Y-53.086
X86.36Y-55.626
X86.36Y-59.686
X86.36Y-62.226
X86.36Y-64.766
X86.36Y-67.306
X86.36Y-69.846
X86.36Y-72.386
X86.36Y-74.926
X86.36Y-77.466
X86.36Y-80.006
X86.36Y-82.546
X97.15Y-98.425
X99.69Y-98.425
X134.62Y-37.846
X134.62Y-40.386
X134.62Y-42.926
X134.62Y-45.466
X134.62Y-48.006
X134.62Y-50.546
X134.62Y-55.626
X134.62Y-58.166
X134.62Y-60.706
X134.62Y-63.246
X134.62Y-65.786
X134.62Y-68.326
X134.62Y-70.866
X134.62Y-73.406
X163.835Y-86.995
X166.375Y-86.995
X186.69Y-54.61
X189.23Y-54.61
T8
X127.9Y-23.3
X130.44Y-23.3
X132.98Y-23.3
X135.52Y-23.3
X138.06Y-23.3
X140.6Y-23.3
X143.14Y-23.3
X145.68Y-23.3
X148.22Y-23.3
X150.76Y-23.3
X153.3Y-23.3
X155.84Y-23.3
X158.38Y-23.3
X160.92Y-23.3
X163.46Y-23.3
X166.0Y-23.3
T9
X180.34Y-80.985
X182.88Y-80.985
X185.42Y-80.985
T10
X66.675Y-96.52
X69.215Y-96.52
X72.39Y-96.5
X74.93Y-96.5
T11
X121.21Y-84.11
X121.21Y-88.61
X127.71Y-84.11
X127.71Y-88.61
T12
X81.48Y-88.9
X81.48Y-93.9
X93.98Y-88.9
X93.98Y-93.9
T13
X62.23Y-67.31
X102.235Y-82.55
X104.14Y-98.425
X106.045Y-29.21
X114.3Y-29.21
X116.205Y-97.79
X135.89Y-30.48
X139.7Y-66.04
X158.75Y-30.48
X177.8Y-86.36
X190.5Y-49.53
T14
X176.53Y-91.44
X181.61Y-96.52
T16
X80.5Y-23.3
X80.5Y-78.3
X173.5Y-23.3
X173.5Y-78.3
T17
X60.96Y-22.86
X60.96Y-96.52
X124.46Y-96.52
X187.96Y-22.86
X187.96Y-96.52
T2
G00X106.99Y-100.035
M15
G01X106.99Y-100.685
M16
G05
G00X113.99Y-100.035
M15
G01X113.99Y-100.685
M16
G05
T3
G00X107.84Y-97.66
M15
G01X108.14Y-97.66
M16
G05
G00X112.84Y-97.66
M15
G01X113.14Y-97.66
M16
G05
T15
G00X137.56Y-100.64
M15
G01X136.76Y-100.64
M16
G05
T0
M30
