M48
; DRILL file {KiCad (6.0.6)} date Thu Aug  4 15:50:39 2022
; FORMAT={-:-/ absolute / inch / decimal}
; #@! TF.CreationDate,2022-08-04T15:50:39-04:00
; #@! TF.GenerationSoftware,Kicad,Pcbnew,(6.0.6)
; #@! TF.FileFunction,Plated,1,2,PTH
FMAT,2
INCH
; #@! TA.AperFunction,Plated,PTH,ViaDrill
T1C0.0157
; #@! TA.AperFunction,Plated,PTH,ComponentDrill
T2C0.0197
; #@! TA.AperFunction,Plated,PTH,ComponentDrill
T3C0.0217
; #@! TA.AperFunction,Plated,PTH,ComponentDrill
T4C0.0299
; #@! TA.AperFunction,Plated,PTH,ComponentDrill
T5C0.0315
; #@! TA.AperFunction,Plated,PTH,ComponentDrill
T6C0.0354
; #@! TA.AperFunction,Plated,PTH,ComponentDrill
T7C0.0394
; #@! TA.AperFunction,Plated,PTH,ComponentDrill
T8C0.0400
; #@! TA.AperFunction,Plated,PTH,ComponentDrill
T9C0.0433
; #@! TA.AperFunction,Plated,PTH,ComponentDrill
T10C0.0469
; #@! TA.AperFunction,Plated,PTH,ComponentDrill
T11C0.0472
; #@! TA.AperFunction,Plated,PTH,ComponentDrill
T12C0.0512
; #@! TA.AperFunction,Plated,PTH,ComponentDrill
T13C0.0591
; #@! TA.AperFunction,Plated,PTH,ViaDrill
T14C0.0625
; #@! TA.AperFunction,Plated,PTH,ComponentDrill
T15C0.0787
; #@! TA.AperFunction,Plated,PTH,ComponentDrill
T16C0.1378
%
G90
G05
T1
X2.325Y-2.95
X2.4Y-3.55
X2.45Y-2.225
X2.55Y-2.15
X2.55Y-2.3
X2.55Y-3.2
X2.575Y-2.975
X2.625Y-1.7
X2.625Y-1.8
X2.65Y-2.175
X2.65Y-2.3
X2.825Y-1.75
X2.85Y-2.525
X2.85Y-3.025
X2.85Y-3.625
X2.875Y-2.0
X2.9Y-2.275
X2.9214Y-2.2
X2.925Y-1.825
X2.95Y-1.025
X2.95Y-1.525
X2.95Y-2.025
X2.95Y-2.1
X3.15Y-1.825
X3.15Y-1.975
X3.15Y-2.075
X3.175Y-1.775
X3.175Y-2.225
X3.175Y-2.3
X3.2Y-1.9
X3.2Y-2.125
X3.25Y-2.1
X3.25Y-2.575
X3.275Y-3.2
X3.3Y-2.125
X3.3Y-2.2
X3.325Y-0.825
X3.325Y-2.425
X3.325Y-2.975
X3.325Y-3.3
X3.325Y-3.425
X3.525Y-1.925
X3.75Y-2.8
X3.8Y-2.925
X3.8002Y-2.6498
X3.825Y-3.5
X3.85Y-2.8
X3.925Y-1.825
X4.1Y-2.1
X4.122Y-2.472
X4.125Y-2.65
X4.125Y-3.375
X4.175Y-3.2
X4.2Y-1.5
X4.2Y-3.65
X4.2094Y-2.1167
X4.225Y-2.85
X4.225Y-3.125
X4.2344Y-1.8917
X4.25Y-1.3725
X4.25Y-1.675
X4.275Y-3.7
X4.3Y-1.5
X4.325Y-2.9
X4.325Y-3.125
X4.325Y-3.55
X4.325Y-3.75
X4.3375Y-3.6875
X4.3594Y-2.0417
X4.3649Y-2.1667
X4.4Y-3.125
X4.4Y-3.775
X4.4024Y-2.6238
X4.4094Y-2.3667
X4.4094Y-2.5167
X4.4344Y-2.0167
X4.4344Y-2.1667
X4.4594Y-1.8917
X4.4875Y-3.6375
X4.5Y-2.625
X4.5Y-2.9
X4.55Y-2.725
X4.55Y-2.85
X4.625Y-2.65
X4.625Y-2.9
X4.625Y-3.05
X4.65Y-2.475
X4.6975Y-2.225
X4.725Y-2.475
X4.7454Y-2.1704
X4.775Y-2.525
X4.8087Y-2.251
X4.825Y-2.4785
X4.9Y-2.675
X4.9Y-3.15
X4.9Y-3.4
X5.0Y-2.6
X5.0Y-2.775
X5.0Y-2.9
X5.0906Y-2.7594
X5.1Y-1.25
X5.125Y-1.45
X5.15Y-1.6
X5.175Y-1.0
X5.2Y-1.225
X5.225Y-1.55
X5.225Y-2.725
X5.225Y-3.45
X5.3Y-1.1
X5.325Y-3.075
X5.325Y-3.325
X5.325Y-3.425
X5.35Y-1.35
X5.375Y-1.55
X5.375Y-1.75
X5.375Y-3.325
X5.375Y-3.425
X5.425Y-3.05
X5.45Y-2.85
X5.475Y-1.55
X5.475Y-2.9
X5.475Y-3.05
X5.475Y-3.45
X5.5Y-1.675
X5.525Y-1.525
X5.525Y-3.15
X5.55Y-2.3
X5.55Y-2.775
X5.55Y-3.05
X5.575Y-1.575
X5.575Y-3.4
X5.6Y-1.025
X5.6Y-1.725
X5.625Y-1.6
X5.675Y-2.1
X5.7Y-2.4
X5.725Y-3.05
X5.75Y-2.1
X5.75Y-2.4
X5.775Y-1.175
X5.775Y-2.9
X5.825Y-2.125
X5.825Y-2.375
X5.85Y-3.375
X5.8531Y-1.6031
X5.95Y-3.375
X6.0035Y-1.175
X6.1Y-3.375
X6.2Y-1.45
X6.2Y-1.675
X6.225Y-3.375
X6.3Y-3.375
X6.325Y-3.55
X6.35Y-2.125
X6.35Y-2.4
X6.5Y-2.275
X6.55Y-1.025
X6.5866Y-1.1634
X6.95Y-2.025
X6.95Y-2.275
X6.975Y-1.025
X6.975Y-1.125
X6.975Y-1.275
X7.15Y-1.075
X7.175Y-1.25
X7.2156Y-2.2844
X7.2295Y-3.2545
X7.275Y-3.375
X7.3Y-3.55
X7.35Y-2.275
X7.5116Y-3.5366
T2
X2.2967Y-0.9
X2.2967Y-3.8
X2.3269Y-0.8269
X2.3269Y-0.9731
X2.3269Y-3.7269
X2.3269Y-3.8731
X2.4Y-0.7967
X2.4Y-1.0033
X2.4Y-3.6967
X2.4Y-3.9033
X2.4731Y-0.8269
X2.4731Y-0.9731
X2.4731Y-3.7269
X2.4731Y-3.8731
X2.5033Y-0.9
X2.5033Y-3.8
X4.7967Y-3.8
X4.8269Y-3.7269
X4.8269Y-3.8731
X4.9Y-3.6967
X4.9Y-3.9033
X4.9731Y-3.7269
X4.9731Y-3.8731
X5.0033Y-3.8
X7.2967Y-0.9
X7.2967Y-3.8
X7.3269Y-0.8269
X7.3269Y-0.9731
X7.3269Y-3.7269
X7.3269Y-3.8731
X7.4Y-0.7967
X7.4Y-1.0033
X7.4Y-3.6967
X7.4Y-3.9033
X7.4731Y-0.8269
X7.4731Y-0.9731
X7.4731Y-3.7269
X7.4731Y-3.8731
X7.5033Y-0.9
X7.5033Y-3.8
T4
X5.95Y-3.45
X6.0Y-3.55
X6.05Y-3.45
X6.1Y-3.55
X6.15Y-3.45
X6.2Y-3.55
T5
X7.2Y-1.625
X7.3Y-1.525
X7.4Y-1.625
T6
X5.2524Y-3.6378
X5.3508Y-3.6378
X5.4492Y-3.6378
X5.5476Y-3.6378
T7
X2.6965Y-3.4
X2.8Y-0.85
X2.8Y-0.95
X2.8Y-1.35
X2.8Y-1.45
X2.8Y-1.85
X2.8Y-1.95
X2.8Y-2.35
X2.8Y-2.45
X2.8Y-2.85
X2.8Y-2.95
X2.8933Y-3.4
X3.4Y-1.49
X3.4Y-1.59
X3.4Y-1.69
X3.4Y-1.79
X3.4Y-1.89
X3.4Y-1.99
X3.4Y-2.09
X3.4Y-2.19
X3.4Y-2.3498
X3.4Y-2.4498
X3.4Y-2.5498
X3.4Y-2.6498
X3.4Y-2.7498
X3.4Y-2.8498
X3.4Y-2.9498
X3.4Y-3.0498
X3.4Y-3.1498
X3.4Y-3.2498
X3.8248Y-3.875
X3.9248Y-3.875
X5.3Y-1.49
X5.3Y-1.59
X5.3Y-1.69
X5.3Y-1.79
X5.3Y-1.89
X5.3Y-1.99
X5.3Y-2.19
X5.3Y-2.29
X5.3Y-2.39
X5.3Y-2.49
X5.3Y-2.59
X5.3Y-2.69
X5.3Y-2.79
X5.3Y-2.89
X6.4502Y-3.425
X6.5502Y-3.425
X7.35Y-2.15
X7.45Y-2.15
T8
X5.0354Y-0.9173
X5.1354Y-0.9173
X5.2354Y-0.9173
X5.3354Y-0.9173
X5.4354Y-0.9173
X5.5354Y-0.9173
X5.6354Y-0.9173
X5.7354Y-0.9173
X5.8354Y-0.9173
X5.9354Y-0.9173
X6.0354Y-0.9173
X6.1354Y-0.9173
X6.2354Y-0.9173
X6.3354Y-0.9173
X6.4354Y-0.9173
X6.5354Y-0.9173
T9
X7.1Y-3.1884
X7.2Y-3.1884
X7.3Y-3.1884
T10
X2.75Y-3.8
X2.85Y-3.8
T11
X4.772Y-3.3114
X4.772Y-3.4886
X5.028Y-3.3114
X5.028Y-3.4886
T12
X3.2079Y-3.5
X3.2079Y-3.6969
X3.7Y-3.5
X3.7Y-3.6969
T13
X2.45Y-2.65
X4.025Y-3.25
X4.1Y-3.875
X4.175Y-1.15
X4.5Y-1.15
X4.575Y-3.825
X5.35Y-1.2
X5.5Y-2.6
X6.25Y-1.2
X7.0Y-3.4
X7.5Y-1.95
T14
X6.95Y-3.6
X7.15Y-3.8
T16
X2.4Y-0.9
X2.4Y-3.8
X4.9Y-3.8
X7.4Y-0.9
X7.4Y-3.8
T2
G00X4.2122Y-3.9384
M15
G01X4.2122Y-3.964
M16
G05
G00X4.4878Y-3.9384
M15
G01X4.4878Y-3.964
M16
G05
T3
G00X4.2457Y-3.8449
M15
G01X4.2575Y-3.8449
M16
G05
G00X4.4425Y-3.8449
M15
G01X4.4543Y-3.8449
M16
G05
T15
G00X5.4157Y-3.8622
M15
G01X5.3843Y-3.8622
M16
G05
T0
M30
